<?xml version="1.0" encoding="UTF-8"?>
<svg version="1.1" xmlns="http://www.w3.org/2000/svg" width="512" height="512">
<path d="M0 0 C2.26145959 1.71190909 4.44247851 3.48641239 6.609375 5.31640625 C7.42148437 5.99445313 8.23359375 6.6725 9.0703125 7.37109375 C23.82178367 20.12544267 36.25121288 37.57717368 40.703125 56.8046875 C42.28368087 64.91902169 42.28368087 64.91902169 47.05078125 71.29296875 C49.86662299 72.50703125 52.68161493 73.41182935 55.609375 74.31640625 C70.83820766 82.371326 80.18531866 96.14456052 85.6640625 112.0546875 C90.48732962 128.69695215 88.13480337 146.62740717 80.546875 162.00390625 C71.21180211 178.12272914 57.6457951 187.93720169 40.08203125 193.44140625 C33.23891399 195.16565627 26.56704688 195.55073062 19.546875 195.62890625 C18.67482422 195.65791016 17.80277344 195.68691406 16.90429688 195.71679688 C11.2910019 195.77203748 8.02035718 195.13558739 3.609375 191.31640625 C1.1415434 187.61465886 0.92864768 184.6114715 1.609375 180.31640625 C4.609375 174.81640625 4.609375 174.81640625 7.609375 173.31640625 C9.36472519 173.14169277 11.12534876 173.01859551 12.88671875 172.921875 C13.95857422 172.85291016 15.03042969 172.78394531 16.13476562 172.71289062 C18.37378556 172.57575546 20.6133932 172.44784002 22.85351562 172.33007812 C36.55383884 171.40911648 46.23669408 166.99244875 55.796875 157.25390625 C63.9706641 147.56466118 65.88122559 136.54337301 64.85302734 124.25683594 C63.58197947 114.13430239 58.09363949 104.87518607 50.234375 98.50390625 C42.80752348 93.16200142 36.44082834 90.82556846 27.3671875 89.3203125 C24.609375 88.31640625 24.609375 88.31640625 23.3046875 86.2421875 C22.59531286 83.25723464 22.08556259 80.27887075 21.6730957 77.23901367 C18.55392108 54.39500403 6.94738895 34.93681741 -11.015625 20.56640625 C-29.65332936 7.25376028 -51.63055928 2.10713703 -74.3046875 4.77734375 C-87.88565893 7.20762285 -100.19792631 12.20211796 -111.390625 20.31640625 C-112.30457031 20.97253906 -113.21851563 21.62867188 -114.16015625 22.3046875 C-124.68629808 30.35755405 -131.99228103 40.79418519 -138.390625 52.31640625 C-139.091875 52.12304688 -139.793125 51.9296875 -140.515625 51.73046875 C-142.49495215 51.1872295 -144.47549899 50.64842117 -146.45703125 50.11328125 C-148.13507617 49.65746079 -149.81113568 49.19379005 -151.48046875 48.70703125 C-167.9845036 44.10125408 -184.08085047 46.99564259 -199.14453125 54.73046875 C-214.53109871 63.51608132 -223.9480108 76.88960119 -229.1328125 93.7265625 C-233.43001318 111.35685843 -229.56607294 128.96448946 -220.390625 144.31640625 C-211.25920586 157.75509856 -197.67114757 167.1478881 -181.77563477 170.90966797 C-175.49470891 171.98081368 -169.03746229 172.06250128 -162.68164062 172.3515625 C-161.56080078 172.41988281 -160.43996094 172.48820313 -159.28515625 172.55859375 C-158.27300049 172.60870605 -157.26084473 172.65881836 -156.21801758 172.71044922 C-152.71988428 173.46015709 -150.96635756 174.87738499 -148.390625 177.31640625 C-146.53207218 181.03351188 -146.81154061 185.26917906 -147.390625 189.31640625 C-149.91738539 192.66265649 -151.42996042 193.99618472 -155.390625 195.31640625 C-179.06355447 197.21001108 -203.44720753 192.55555675 -222.0390625 177.1171875 C-224.54393766 174.90191502 -226.97284291 172.62599155 -229.390625 170.31640625 C-230.00550781 169.77628906 -230.62039062 169.23617187 -231.25390625 168.6796875 C-244.64236874 156.46079185 -253.5386706 135.95208093 -254.51660156 118.00439453 C-255.24258309 93.59211705 -250.5432142 71.76367875 -233.828125 52.94140625 C-232.3579885 51.39112602 -230.87951311 49.84868636 -229.390625 48.31640625 C-228.81699219 47.68089844 -228.24335938 47.04539062 -227.65234375 46.390625 C-214.03352099 31.73170122 -192.35448843 24.1412345 -172.76171875 23.12890625 C-164.45583605 22.99260459 -156.54743639 23.77582804 -148.390625 25.31640625 C-148.143125 24.75308594 -147.895625 24.18976563 -147.640625 23.609375 C-137.26928543 4.58444897 -113.47900858 -8.92847943 -93.25390625 -14.96875 C-61.27514386 -23.93572884 -27.25553094 -19.19466313 0 0 Z " fill="#333333" transform="translate(339.390625,82.68359375)"/>
<path d="M0 0 C1.1392392 -0.00700928 2.27847839 -0.01401855 3.45223999 -0.02124023 C7.20148409 -0.03878174 10.94996755 -0.02721024 14.69921875 -0.01367188 C17.31421045 -0.01636787 19.92920118 -0.02025119 22.54418945 -0.02526855 C28.01814954 -0.03252851 33.49189316 -0.02300101 38.96582031 -0.00390625 C45.27803427 0.01785961 51.58973128 0.01080704 57.90193272 -0.01121187 C63.99526842 -0.0316097 70.08837647 -0.02937624 76.18173218 -0.01768494 C78.76524936 -0.01502139 81.34877978 -0.01827425 83.93228149 -0.02760315 C87.54635288 -0.0377902 91.15943925 -0.02223547 94.7734375 0 C95.83549408 -0.00809692 96.89755066 -0.01619385 97.99179077 -0.02453613 C105.98086532 0.06627368 111.42860922 1.62520436 117.19921875 7.26757812 C122.82739472 15.62943957 122.76122889 22.64160697 122.38671875 32.51757812 C123.11262207 32.49139404 123.83852539 32.46520996 124.58642578 32.43823242 C127.89463416 32.33391003 131.20249595 32.26913941 134.51171875 32.20507812 C135.65382813 32.16318359 136.7959375 32.12128906 137.97265625 32.078125 C147.48086555 31.93992428 147.48086555 31.93992428 151.12109375 34.75976562 C153.9330526 38.1825983 154.41434416 40.00758626 154.62890625 44.29882812 C154.24311154 47.83320547 152.69022342 49.89414225 150.38671875 52.51757812 C146.94037993 54.81513734 145.67603484 54.75401788 141.625 54.71289062 C140.50673828 54.70644531 139.38847656 54.7 138.23632812 54.69335938 C137.06908203 54.67660156 135.90183594 54.65984375 134.69921875 54.64257812 C133.52037109 54.63355469 132.34152344 54.62453125 131.12695312 54.61523438 C128.21333849 54.59164235 125.30012983 54.55872353 122.38671875 54.51757812 C122.38671875 57.81757813 122.38671875 61.11757813 122.38671875 64.51757812 C123.11262207 64.49139404 123.83852539 64.46520996 124.58642578 64.43823242 C127.89463416 64.33391003 131.20249595 64.26913941 134.51171875 64.20507812 C135.65382813 64.16318359 136.7959375 64.12128906 137.97265625 64.078125 C147.48086555 63.93992428 147.48086555 63.93992428 151.12109375 66.75976562 C153.9330526 70.1825983 154.41434416 72.00758626 154.62890625 76.29882812 C154.24311154 79.83320547 152.69022342 81.89414225 150.38671875 84.51757812 C146.94037993 86.81513734 145.67603484 86.75401788 141.625 86.71289062 C140.50673828 86.70644531 139.38847656 86.7 138.23632812 86.69335938 C136.48545898 86.66822266 136.48545898 86.66822266 134.69921875 86.64257812 C133.52037109 86.63355469 132.34152344 86.62453125 131.12695312 86.61523438 C128.21333849 86.59164235 125.30012983 86.55872353 122.38671875 86.51757812 C122.38671875 89.81757813 122.38671875 93.11757813 122.38671875 96.51757812 C123.11262207 96.49139404 123.83852539 96.46520996 124.58642578 96.43823242 C127.89463416 96.33391003 131.20249595 96.26913941 134.51171875 96.20507812 C135.65382813 96.16318359 136.7959375 96.12128906 137.97265625 96.078125 C147.48086555 95.93992428 147.48086555 95.93992428 151.12109375 98.75976562 C153.9330526 102.1825983 154.41434416 104.00758626 154.62890625 108.29882812 C154.24311154 111.83320547 152.69022342 113.89414225 150.38671875 116.51757812 C146.94037993 118.81513734 145.67603484 118.75401788 141.625 118.71289062 C140.50673828 118.70644531 139.38847656 118.7 138.23632812 118.69335938 C136.48545898 118.66822266 136.48545898 118.66822266 134.69921875 118.64257812 C133.52037109 118.63355469 132.34152344 118.62453125 131.12695312 118.61523438 C128.21333849 118.59164235 125.30012983 118.55872353 122.38671875 118.51757812 C122.433125 119.4121875 122.47953125 120.30679688 122.52734375 121.22851562 C122.78449548 129.84309859 122.67560419 137.63922502 116.73828125 144.39257812 C112.13780694 148.57117488 107.67011647 150.75738418 101.3730011 150.79173279 C99.89506325 150.80669548 99.89506325 150.80669548 98.38726807 150.82196045 C97.31756775 150.82262512 96.24786743 150.82328979 95.14575195 150.82397461 C94.01016342 150.83229813 92.87457489 150.84062164 91.70457458 150.84919739 C87.94884819 150.87329997 84.19329555 150.88207072 80.4375 150.88867188 C77.82301278 150.89763921 75.20852608 150.90676108 72.59403992 150.91603088 C67.11061965 150.93338618 61.62724353 150.94025447 56.14379883 150.94311523 C49.82540326 150.94674472 43.50749516 150.97660098 37.18924838 151.01851982 C31.09221864 151.05753896 24.99542402 151.06871066 18.89827538 151.06984138 C16.31359404 151.0740387 13.7289121 151.08645318 11.1443119 151.10735893 C7.52066769 151.13433153 3.89835286 151.12942836 0.2746582 151.11694336 C-1.31471054 151.13919479 -1.31471054 151.13919479 -2.93618774 151.16189575 C-10.09621069 151.09194526 -15.66324025 149.62115919 -21.61328125 145.51757812 C-25.5245234 141.41763074 -27.7538037 137.20706401 -27.7109375 131.50585938 C-27.70771484 130.74853516 -27.70449219 129.99121094 -27.70117188 129.2109375 C-27.69279297 128.42525391 -27.68441406 127.63957031 -27.67578125 126.83007812 C-27.67126953 126.03279297 -27.66675781 125.23550781 -27.66210938 124.4140625 C-27.65033975 122.44853556 -27.63240473 120.48304727 -27.61328125 118.51757812 C-28.33918457 118.53852539 -29.06508789 118.55947266 -29.81298828 118.58105469 C-33.1212768 118.66451462 -36.42934336 118.71633351 -39.73828125 118.76757812 C-40.88039062 118.80109375 -42.0225 118.83460938 -43.19921875 118.86914062 C-53.82326898 118.99267609 -53.82326898 118.99267609 -58.61328125 114.51757812 C-60.47054741 110.80304581 -60.19829214 106.56178387 -59.61328125 102.51757812 C-57.42305207 99.69333524 -55.78310918 98.10249209 -52.61328125 96.51757812 C-50.72689005 96.43266313 -48.8374961 96.41038512 -46.94921875 96.41992188 C-45.26699219 96.42475586 -45.26699219 96.42475586 -43.55078125 96.4296875 C-42.37515625 96.43806641 -41.19953125 96.44644531 -39.98828125 96.45507812 C-38.80492187 96.45958984 -37.6215625 96.46410156 -36.40234375 96.46875 C-33.47260618 96.48056346 -30.54296853 96.49703555 -27.61328125 96.51757812 C-27.61328125 93.21757812 -27.61328125 89.91757812 -27.61328125 86.51757812 C-28.33918457 86.53852539 -29.06508789 86.55947266 -29.81298828 86.58105469 C-33.1212768 86.66451462 -36.42934336 86.71633351 -39.73828125 86.76757812 C-40.88039062 86.80109375 -42.0225 86.83460938 -43.19921875 86.86914062 C-53.82326898 86.99267609 -53.82326898 86.99267609 -58.61328125 82.51757812 C-60.47054741 78.80304581 -60.19829214 74.56178387 -59.61328125 70.51757812 C-57.42305207 67.69333524 -55.78310918 66.10249209 -52.61328125 64.51757812 C-50.72689005 64.43266313 -48.8374961 64.41038512 -46.94921875 64.41992188 C-45.82773438 64.42314453 -44.70625 64.42636719 -43.55078125 64.4296875 C-42.37515625 64.43806641 -41.19953125 64.44644531 -39.98828125 64.45507812 C-38.80492187 64.45958984 -37.6215625 64.46410156 -36.40234375 64.46875 C-33.47260618 64.48056346 -30.54296853 64.49703555 -27.61328125 64.51757812 C-27.61328125 61.21757812 -27.61328125 57.91757812 -27.61328125 54.51757812 C-28.70213623 54.54899902 -28.70213623 54.54899902 -29.81298828 54.58105469 C-33.1212768 54.66451462 -36.42934336 54.71633351 -39.73828125 54.76757812 C-40.88039062 54.80109375 -42.0225 54.83460938 -43.19921875 54.86914062 C-53.82326898 54.99267609 -53.82326898 54.99267609 -58.61328125 50.51757812 C-60.47054741 46.80304581 -60.19829214 42.56178387 -59.61328125 38.51757812 C-57.42305207 35.69333524 -55.78310918 34.10249209 -52.61328125 32.51757812 C-50.72689005 32.43266313 -48.8374961 32.41038512 -46.94921875 32.41992188 C-45.82773438 32.42314453 -44.70625 32.42636719 -43.55078125 32.4296875 C-42.37515625 32.43806641 -41.19953125 32.44644531 -39.98828125 32.45507812 C-38.80492187 32.45958984 -37.6215625 32.46410156 -36.40234375 32.46875 C-33.47260618 32.48056346 -30.54296853 32.49703555 -27.61328125 32.51757812 C-27.64808594 31.36 -27.68289062 30.20242188 -27.71875 29.00976562 C-27.74690332 27.47071772 -27.77420181 25.93165401 -27.80078125 24.39257812 C-27.82591797 23.63203125 -27.85105469 22.87148438 -27.87695312 22.08789062 C-27.95829485 15.79746368 -26.52105551 11.80690724 -22.42578125 6.89257812 C-15.32875145 0.89953073 -9.14420431 -0.06971373 0 0 Z M-5.61328125 22.51757812 C-5.61328125 57.49757813 -5.61328125 92.47757813 -5.61328125 128.51757812 C29.36671875 128.51757812 64.34671875 128.51757812 100.38671875 128.51757812 C100.38671875 93.53757812 100.38671875 58.55757812 100.38671875 22.51757812 C65.40671875 22.51757812 30.42671875 22.51757812 -5.61328125 22.51757812 Z " fill="#333333" transform="translate(219.61328125,308.482421875)"/>
<path d="M0 0 C0.69291138 -0.00817749 1.38582275 -0.01635498 2.09973145 -0.02478027 C4.39753353 -0.04963287 6.69527376 -0.06615143 8.99316406 -0.08056641 C9.7781855 -0.08589008 10.56320694 -0.09121376 11.37201691 -0.09669876 C15.5286003 -0.1234321 19.68515366 -0.14280478 23.84179688 -0.15722656 C28.1304593 -0.17385872 32.4183509 -0.21862295 36.70672226 -0.26959801 C40.00792294 -0.30329653 43.30894142 -0.31480686 46.61029816 -0.32045364 C48.19073617 -0.32716094 49.77116241 -0.34236967 51.3514328 -0.36634445 C53.56825515 -0.39805261 55.78300937 -0.3980256 58 -0.390625 C59.25971619 -0.39871185 60.51943237 -0.40679871 61.81732178 -0.41513062 C66.40485823 0.39534636 68.01170413 1.89325453 71.25878906 5.19287109 C72.39690868 8.60722993 72.40670236 11.26262927 72.43579102 14.86401367 C72.44236221 15.53756393 72.44893341 16.2111142 72.45570374 16.90507507 C72.47540245 19.13251869 72.48709156 21.35989499 72.49707031 23.58740234 C72.50114584 24.34944159 72.50522137 25.11148083 72.50942039 25.89661217 C72.53026645 29.93001406 72.54457452 33.96338209 72.55395508 37.99682617 C72.56501705 42.15643204 72.59941812 46.3155026 72.63912678 50.47491932 C72.6653075 53.67918371 72.67364816 56.88332079 72.67723656 60.08768272 C72.68209873 61.62064924 72.69370229 63.15361022 72.71227455 64.68647194 C72.73669892 66.83592454 72.73569601 68.98399521 72.72875977 71.13354492 C72.73462601 72.35471512 72.74049225 73.57588531 72.74653625 74.83406067 C72.15807631 78.88641695 70.80800574 81.0227295 68.25878906 84.19287109 C64.58991956 86.63878409 62.78065631 86.45679786 58.40405273 86.48339844 C57.71099533 86.49011566 57.01793793 86.49683289 56.30387878 86.50375366 C54.01143226 86.52275919 51.71927823 86.52665938 49.42675781 86.52880859 C47.83116028 86.53523583 46.23556393 86.54196413 44.63996887 86.54898071 C41.29339874 86.56096061 37.94693187 86.56466092 34.6003418 86.56347656 C30.31963478 86.56327357 26.03959317 86.590551 21.75904369 86.62502098 C18.46211225 86.64730236 15.16534046 86.6513137 11.86834145 86.65025711 C10.29073104 86.65261216 8.71311617 86.66143035 7.13558006 86.67692184 C4.92382195 86.69660376 2.71349199 86.69073626 0.50170898 86.67871094 C-1.38334099 86.68298599 -1.38334099 86.68298599 -3.30647278 86.68734741 C-7.38006298 86.10089983 -9.55501323 84.75010786 -12.74121094 82.19287109 C-14.22105618 79.23318061 -13.90128006 76.55544822 -13.93408203 73.25219727 C-13.94225952 72.53817245 -13.95043701 71.82414764 -13.9588623 71.08848572 C-13.98371395 68.72094564 -14.00023174 66.35346552 -14.01464844 63.98583984 C-14.01997211 63.17750513 -14.02529579 62.36917042 -14.03078079 61.53634071 C-14.05751157 57.2577166 -14.07688654 52.97912166 -14.09130859 48.70043945 C-14.1079553 44.2816534 -14.15273262 39.86361337 -14.20368004 35.44510937 C-14.23734099 32.04701382 -14.24888469 28.64909559 -14.25453568 25.25084877 C-14.26125156 23.62213757 -14.27648258 21.99343818 -14.30042648 20.36488914 C-14.33205845 18.08321785 -14.33211906 15.80356163 -14.32470703 13.52172852 C-14.33279388 12.22426193 -14.34088074 10.92679535 -14.34921265 9.5900116 C-13.58636857 5.32770694 -12.0521643 3.88463819 -8.74121094 1.19287109 C-5.82916411 -0.26315232 -3.25266667 0.0332905 0 0 Z " fill="#333333" transform="translate(237.7412109375,340.80712890625)"/>
<path d="M0 0 C3.52787301 1.95657197 5.70285021 4.10855063 7 8 C7.08952331 10.16213393 7.1175854 12.32698411 7.11352539 14.4909668 C7.11367142 15.1448941 7.11381744 15.79882141 7.1139679 16.4725647 C7.11327188 18.63148326 7.10549408 20.79031528 7.09765625 22.94921875 C7.09579096 24.44708713 7.09436758 25.94495611 7.09336853 27.44282532 C7.08955207 31.38345019 7.0797292 35.32403814 7.06866455 39.26464844 C7.05843172 43.28645325 7.0538669 47.30826404 7.04882812 51.33007812 C7.03810616 59.22006901 7.02104017 67.11002991 7 75 C7.88522339 74.9685791 7.88522339 74.9685791 8.78833008 74.93652344 C11.46287999 74.85336317 14.13715815 74.80134309 16.8125 74.75 C17.74126953 74.71648437 18.67003906 74.68296875 19.62695312 74.6484375 C20.9659668 74.62910156 20.9659668 74.62910156 22.33203125 74.609375 C23.15421143 74.58842773 23.9763916 74.56748047 24.82348633 74.54589844 C27 75 27 75 28.75439453 76.81713867 C30.66625373 80.16757636 30.61631389 82.20141176 30 86 C28.14183065 88.67753142 25.84940472 90.76086604 23.4375 92.9375 C22.14156543 94.16621637 20.84727591 95.39667026 19.5546875 96.62890625 C18.93432617 97.21172363 18.31396484 97.79454102 17.67480469 98.39501953 C13.86319772 102.04771694 10.55248853 106.14232141 7.171875 110.1875 C6.25148438 111.2703125 6.25148438 111.2703125 5.3125 112.375 C4.50232422 113.34566406 4.50232422 113.34566406 3.67578125 114.3359375 C0.72336909 117.26770342 -1.0669435 117.96882389 -5.2734375 118.109375 C-10.58820532 116.52720093 -13.05605046 113.35660376 -16.625 109.25 C-18.02238679 107.69319741 -19.4221603 106.13853411 -20.82421875 104.5859375 C-21.51950684 103.81088867 -22.21479492 103.03583984 -22.93115234 102.23730469 C-24.85713434 100.15449857 -26.83686486 98.17836993 -28.89453125 96.2265625 C-29.49378418 95.65647461 -30.09303711 95.08638672 -30.71044922 94.49902344 C-31.83002715 93.44623401 -32.9600569 92.40440755 -34.10205078 91.37597656 C-36.77372484 88.83226118 -38.00161259 86.99477775 -39.09765625 83.4453125 C-39 80 -39 80 -37.63452148 77.30419922 C-33.62466634 73.79710878 -29.88710962 74.45366798 -24.75 74.6875 C-23.81414062 74.71005859 -22.87828125 74.73261719 -21.9140625 74.75585938 C-19.60774326 74.81469405 -17.30469162 74.89682854 -15 75 C-15.01110306 74.1466658 -15.02220612 73.2933316 -15.03364563 72.41413879 C-15.13389649 64.36605366 -15.20998957 56.31817868 -15.25906086 48.26961231 C-15.28513747 44.13186282 -15.32049885 39.99462992 -15.37719727 35.85717773 C-15.4315881 31.86304854 -15.46143511 27.86941569 -15.47438622 23.87494469 C-15.48361359 22.3522733 -15.50163316 20.82962861 -15.52865028 19.30716896 C-15.56503836 17.17138957 -15.56994183 15.03765161 -15.56762695 12.90161133 C-15.57873001 11.6869368 -15.58983307 10.47226227 -15.60127258 9.22077942 C-14.82968196 5.0876736 -13.19800048 3.63191932 -10 1 C-6.76918255 -0.61540873 -3.49240902 -0.5896275 0 0 Z " fill="#333333" transform="translate(271,181)"/>
</svg>
