<?xml version="1.0" encoding="UTF-8"?>
<svg version="1.1" xmlns="http://www.w3.org/2000/svg" width="512" height="512">
<path d="M0 0 C4.52819497 0.79442017 5.75244625 2.02724947 8.5625 5.625 C9.03246025 8.49846615 9.19970107 10.76633911 9.13012695 13.62817383 C9.13122215 14.81432785 9.13122215 14.81432785 9.13233948 16.02444458 C9.12886721 18.62768115 9.0900257 21.22910889 9.05078125 23.83203125 C9.04145178 25.64091515 9.0343363 27.44981171 9.02934265 29.25871277 C9.01028331 34.01178072 8.96119187 38.76408053 8.90582275 43.5168457 C8.84559724 49.22360104 8.82270894 54.93061372 8.79355621 60.63759613 C8.74512597 69.30059776 8.64930446 77.96191514 8.5625 86.625 C22.4225 86.625 36.2825 86.625 50.5625 86.625 C50.47548828 77.94123047 50.47548828 77.94123047 50.38671875 69.08203125 C50.36116947 65.41338342 50.3370999 61.74484536 50.31835938 58.07617188 C50.28847519 52.253593 50.25313152 46.43140744 50.18530273 40.60913086 C50.13095637 35.91475301 50.10107387 31.22079694 50.08811378 26.52612877 C50.07887859 24.73552498 50.06084407 22.94494415 50.03384972 21.15452003 C49.9975233 18.64523152 49.99255597 16.13768319 49.99487305 13.62817383 C49.96790848 12.51902367 49.96790848 12.51902367 49.94039917 11.38746643 C49.97955838 7.46534839 50.44297332 5.77574031 52.91047668 2.66386414 C55.5625 0.625 55.5625 0.625 58.5625 0 C62.65817302 0.85326521 63.97636947 2.36351793 66.5625 5.625 C67.03246025 8.49846615 67.19970107 10.76633911 67.13012695 13.62817383 C67.13122215 14.81432785 67.13122215 14.81432785 67.13233948 16.02444458 C67.12886721 18.62768115 67.0900257 21.22910889 67.05078125 23.83203125 C67.04145178 25.64091515 67.0343363 27.44981171 67.02934265 29.25871277 C67.01028331 34.01178072 66.96119187 38.76408053 66.90582275 43.5168457 C66.84559724 49.22360104 66.82270894 54.93061372 66.79355621 60.63759613 C66.74512597 69.30059776 66.64930446 77.96191514 66.5625 86.625 C80.4225 86.625 94.2825 86.625 108.5625 86.625 C108.50449219 80.83582031 108.44648438 75.04664062 108.38671875 69.08203125 C108.36116947 65.41338342 108.3370999 61.74484536 108.31835938 58.07617188 C108.28847519 52.253593 108.25313152 46.43140744 108.18530273 40.60913086 C108.13095637 35.91475301 108.10107387 31.22079694 108.08811378 26.52612877 C108.07887859 24.73552498 108.06084407 22.94494415 108.03384972 21.15452003 C107.9975233 18.64523152 107.99255597 16.13768319 107.99487305 13.62817383 C107.97689667 12.88874039 107.95892029 12.14930695 107.94039917 11.38746643 C107.97955838 7.46534839 108.44297332 5.77574031 110.91047668 2.66386414 C113.5625 0.625 113.5625 0.625 116.5625 0 C120.65817302 0.85326521 121.97636947 2.36351793 124.5625 5.625 C125.03246025 8.49846615 125.19970107 10.76633911 125.13012695 13.62817383 C125.13085709 14.41894318 125.13158722 15.20971252 125.13233948 16.02444458 C125.12886721 18.62768115 125.0900257 21.22910889 125.05078125 23.83203125 C125.04145178 25.64091515 125.0343363 27.44981171 125.02934265 29.25871277 C125.01028331 34.01178072 124.96119187 38.76408053 124.90582275 43.5168457 C124.84559724 49.22360104 124.82270894 54.93061372 124.79355621 60.63759613 C124.74512597 69.30059776 124.64930446 77.96191514 124.5625 86.625 C138.4225 86.625 152.2825 86.625 166.5625 86.625 C166.50449219 80.83582031 166.44648438 75.04664062 166.38671875 69.08203125 C166.36116947 65.41338342 166.3370999 61.74484536 166.31835938 58.07617188 C166.28847519 52.253593 166.25313152 46.43140744 166.18530273 40.60913086 C166.13095637 35.91475301 166.10107387 31.22079694 166.08811378 26.52612877 C166.07887859 24.73552498 166.06084407 22.94494415 166.03384972 21.15452003 C165.9975233 18.64523152 165.99255597 16.13768319 165.99487305 13.62817383 C165.97689667 12.88874039 165.95892029 12.14930695 165.94039917 11.38746643 C165.97931154 7.49007151 166.44776361 5.77189858 168.87532043 2.66386414 C171.5625 0.625 171.5625 0.625 175.125 0 C178.5625 0.625 178.5625 0.625 180.7489624 2.66386414 C183.02561277 6.3811684 183.09877281 9.40317346 183.01660156 13.62817383 C183.01718567 14.41894318 183.01776978 15.20971252 183.01837158 16.02444458 C183.01559404 18.62742647 182.98451885 21.22925045 182.953125 23.83203125 C182.94566141 25.64091873 182.93996903 27.44981431 182.93597412 29.25871277 C182.92072706 34.01165222 182.88145331 38.76410003 182.8371582 43.5168457 C182.79618544 48.36988678 182.77795883 53.22300756 182.7578125 58.07617188 C182.71495811 67.59266351 182.64671804 77.10879082 182.5625 86.625 C183.70412598 86.61194824 184.84575195 86.59889648 186.02197266 86.58544922 C187.54850052 86.57488907 189.07503064 86.56465243 190.6015625 86.5546875 C191.35058838 86.54526123 192.09961426 86.53583496 192.87133789 86.52612305 C207.20164728 86.4562191 220.11093859 90.68153278 230.71875 100.59375 C240.53568237 111.40901448 243.84842509 122.75944655 243.66015625 137.04296875 C243.65310669 138.06209351 243.64605713 139.08121826 243.63879395 140.13122559 C243.62049571 142.62930135 243.59487024 145.12707359 243.5625 147.625 C245.04588364 147.61500725 245.04588364 147.61500725 246.55923462 147.60481262 C255.88736573 147.5439484 265.21545646 147.49900185 274.54374123 147.46956348 C279.33930372 147.45392003 284.13470567 147.43270584 288.93017578 147.39868164 C293.55969187 147.36604115 298.1890537 147.34813705 302.81867599 147.34036827 C304.58329063 147.33483319 306.34789701 147.32402446 308.11244583 147.30780983 C310.58768078 147.28597305 313.06228159 147.28303566 315.53759766 147.28442383 C316.26408508 147.273638 316.99057251 147.26285217 317.73907471 147.2517395 C322.40556531 147.27998302 325.60527521 148.14690687 329.5625 150.625 C331.10836876 153.71673752 330.85609521 156.21929552 330.5625 159.625 C329.04754639 161.82318115 329.04754639 161.82318115 326.5625 163.625 C323.73767099 163.99911527 321.30925159 164.1323417 318.48925781 164.07910156 C317.67912735 164.07968567 316.86899689 164.08026978 316.03431702 164.08087158 C313.36098129 164.07808852 310.68876553 164.0469869 308.015625 164.015625 C306.16046762 164.00816338 304.30530236 164.00247007 302.45013428 163.99847412 C297.57059923 163.98321155 292.69154147 163.94392436 287.81219482 163.8996582 C281.95605838 163.85151937 276.09976223 163.83317445 270.2434845 163.80984497 C261.34949118 163.77107371 252.45654484 163.69442446 243.5625 163.625 C243.5625 177.485 243.5625 191.345 243.5625 205.625 C252.35455078 205.53798828 252.35455078 205.53798828 261.32421875 205.44921875 C265.03843915 205.42366971 268.75255114 205.39960014 272.46679688 205.38085938 C278.36180126 205.35097431 284.2564172 205.31562821 290.15112305 205.24780273 C294.90385505 205.19345948 299.6561705 205.1635745 304.40918922 205.15061378 C306.22212087 205.14137805 308.03502982 205.12334248 309.84778404 205.09634972 C312.38819946 205.06002759 314.92689582 205.05505581 317.4675293 205.05737305 C318.59070557 205.03040848 318.59070557 205.03040848 319.73657227 205.00289917 C323.67983208 205.04179408 325.39860141 205.49529103 328.52937317 207.97297668 C330.5625 210.625 330.5625 210.625 331.1875 213.625 C330.33361039 217.72367012 328.82943929 219.03955167 325.5625 221.625 C322.66044867 222.09478417 320.35828211 222.26202648 317.4675293 222.19262695 C316.26674492 222.19372215 316.26674492 222.19372215 315.04170227 222.19483948 C312.40600903 222.19136685 309.77210171 222.15252334 307.13671875 222.11328125 C305.30541448 222.10395192 303.47409771 222.09683637 301.64277649 222.09184265 C296.83052923 222.07278226 292.01904052 222.02368984 287.20709229 221.96832275 C281.42941717 221.90810013 275.65148794 221.88520945 269.87358856 221.85605621 C261.10269868 221.80762409 252.33347206 221.71180311 243.5625 221.625 C243.5625 235.485 243.5625 249.345 243.5625 263.625 C249.42386719 263.57859375 255.28523438 263.5321875 261.32421875 263.484375 C265.03842918 263.46393582 268.75257023 263.44468004 272.46679688 263.4296875 C278.36171883 263.40577978 284.25639216 263.3775028 290.15112305 263.32324219 C294.90383948 263.27976773 299.65628929 263.25585934 304.40918922 263.24549103 C306.22209686 263.23810254 308.03498997 263.22367446 309.84778404 263.20207977 C312.38801941 263.17302413 314.92715438 263.16904484 317.4675293 263.17089844 C318.21631348 263.15651733 318.96509766 263.14213623 319.73657227 263.12731934 C323.34319012 263.15577885 325.43023864 263.54453963 328.53718567 265.43463135 C330.5625 267.625 330.5625 267.625 331.0625 271.125 C330.55268374 274.69371381 330.12583571 276.15660265 327.5625 278.625 C323.91692991 279.84019003 320.58058779 279.75679595 316.78637695 279.73852539 C315.99589966 279.73867142 315.20542236 279.73881744 314.39099121 279.7389679 C311.77756 279.73827109 309.16420001 279.73048955 306.55078125 279.72265625 C304.73902933 279.72079124 302.9272769 279.71936773 301.11552429 279.71836853 C296.34632984 279.71454985 291.57716582 279.70472508 286.8079834 279.69366455 C281.08610412 279.68163829 275.36421466 279.6770451 269.64232635 279.67121124 C260.94902973 279.66151301 252.2557999 279.6423519 243.5625 279.625 C243.5625 293.485 243.5625 307.345 243.5625 321.625 C249.50765625 321.57859375 255.4528125 321.5321875 261.578125 321.484375 C265.34246536 321.46393901 269.10673741 321.44468346 272.87109375 321.4296875 C278.84731229 321.40576751 284.82328591 321.37745762 290.79931641 321.32324219 C295.61686641 321.27980972 300.4341538 321.25586822 305.25188446 321.24549103 C307.09073776 321.23809498 308.92957654 321.22365231 310.76831818 321.20207977 C313.3422817 321.17307998 315.91515745 321.1690425 318.48925781 321.17089844 C319.25098801 321.15651733 320.0127182 321.14213623 320.79753113 321.12731934 C324.2557272 321.15433475 326.20997913 321.36707509 329.03582764 323.43463135 C331.27270169 326.64395047 331.10758019 328.80943865 330.5625 332.625 C328.34386971 335.53217073 327.04305071 336.46481643 323.5625 337.625 C320.99173471 337.71598225 318.44868965 337.75106038 315.87817383 337.73852539 C315.0974501 337.73867142 314.31672638 337.73881744 313.51234436 337.7389679 C310.93137841 337.73827114 308.3504846 337.73048982 305.76953125 337.72265625 C303.98019958 337.72079123 302.1908674 337.71936772 300.40153503 337.71836853 C295.69152416 337.71454999 290.98154411 337.70472533 286.27154541 337.69366455 C281.46553972 337.68343621 276.65952906 337.67886786 271.85351562 337.67382812 C262.42316354 337.66310249 252.99283433 337.64603399 243.5625 337.625 C243.57068253 338.2564241 243.57886505 338.88784821 243.58729553 339.53840637 C243.61998293 342.42792281 243.64016789 345.31740018 243.66015625 348.20703125 C243.67324829 349.20029419 243.68634033 350.19355713 243.6998291 351.21691895 C243.76767933 364.30115703 239.44858625 374.71760657 230.82421875 384.62109375 C219.66860472 395.34672694 205.69208461 398.75270052 190.70703125 398.66015625 C189.92187134 398.65761841 189.13671143 398.65508057 188.32775879 398.65246582 C186.40599531 398.64588694 184.48424439 398.63580006 182.5625 398.625 C182.57138245 399.62867111 182.58026489 400.63234222 182.5894165 401.66642761 C182.67052008 411.12728727 182.7304739 420.58807635 182.76974869 430.04920483 C182.79061917 434.91324037 182.818927 439.77699517 182.86425781 444.64086914 C182.90773476 449.33523122 182.93164117 454.02932334 182.94200897 458.72387123 C182.94939702 460.51445071 182.96382426 462.30501549 182.98542023 464.09547997 C183.01447925 466.60458623 183.01845503 469.11257857 183.01660156 471.62182617 C183.03817322 472.73097633 183.03817322 472.73097633 183.06018066 473.86253357 C183.03153419 477.44900894 182.6379024 479.5018833 180.7489624 482.58613586 C178.5625 484.625 178.5625 484.625 175.125 485.25 C170.59680503 484.45557983 169.37255375 483.22275053 166.5625 479.625 C166.09253975 476.75153385 165.92529893 474.48366089 165.99487305 471.62182617 C165.99414291 470.83105682 165.99341278 470.04028748 165.99266052 469.22555542 C165.99613279 466.62231885 166.0349743 464.02089111 166.07421875 461.41796875 C166.08354822 459.60908485 166.0906637 457.80018829 166.09565735 455.99128723 C166.11471669 451.23821928 166.16380813 446.48591947 166.21917725 441.7331543 C166.27940276 436.02639896 166.30229106 430.31938628 166.33144379 424.61240387 C166.37987403 415.94940224 166.47569554 407.28808486 166.5625 398.625 C152.7025 398.625 138.8425 398.625 124.5625 398.625 C124.62050781 404.41417969 124.67851562 410.20335937 124.73828125 416.16796875 C124.76383053 419.83661658 124.7879001 423.50515464 124.80664062 427.17382812 C124.83652481 432.996407 124.87186848 438.81859256 124.93969727 444.64086914 C124.99404363 449.33524699 125.02392613 454.02920306 125.03688622 458.72387123 C125.04612141 460.51447502 125.06415593 462.30505585 125.09115028 464.09547997 C125.1274767 466.60476848 125.13244403 469.11231681 125.13012695 471.62182617 C125.14810333 472.36125961 125.16607971 473.10069305 125.18460083 473.86253357 C125.14544162 477.78465161 124.68202668 479.47425969 122.21452332 482.58613586 C119.5625 484.625 119.5625 484.625 116.5625 485.25 C112.46682698 484.39673479 111.14863053 482.88648207 108.5625 479.625 C108.09253975 476.75153385 107.92529893 474.48366089 107.99487305 471.62182617 C107.99414291 470.83105682 107.99341278 470.04028748 107.99266052 469.22555542 C107.99613279 466.62231885 108.0349743 464.02089111 108.07421875 461.41796875 C108.08354822 459.60908485 108.0906637 457.80018829 108.09565735 455.99128723 C108.11471669 451.23821928 108.16380813 446.48591947 108.21917725 441.7331543 C108.27940276 436.02639896 108.30229106 430.31938628 108.33144379 424.61240387 C108.37987403 415.94940224 108.47569554 407.28808486 108.5625 398.625 C94.7025 398.625 80.8425 398.625 66.5625 398.625 C66.64951172 407.30876953 66.64951172 407.30876953 66.73828125 416.16796875 C66.76383053 419.83661658 66.7879001 423.50515464 66.80664062 427.17382812 C66.83652481 432.996407 66.87186848 438.81859256 66.93969727 444.64086914 C66.99404363 449.33524699 67.02392613 454.02920306 67.03688622 458.72387123 C67.04612141 460.51447502 67.06415593 462.30505585 67.09115028 464.09547997 C67.1274767 466.60476848 67.13244403 469.11231681 67.13012695 471.62182617 C67.14810333 472.36125961 67.16607971 473.10069305 67.18460083 473.86253357 C67.14544162 477.78465161 66.68202668 479.47425969 64.21452332 482.58613586 C61.5625 484.625 61.5625 484.625 58.5625 485.25 C54.46682698 484.39673479 53.14863053 482.88648207 50.5625 479.625 C50.09253975 476.75153385 49.92529893 474.48366089 49.99487305 471.62182617 C49.99377785 470.43567215 49.99377785 470.43567215 49.99266052 469.22555542 C49.99613279 466.62231885 50.0349743 464.02089111 50.07421875 461.41796875 C50.08354822 459.60908485 50.0906637 457.80018829 50.09565735 455.99128723 C50.11471669 451.23821928 50.16380813 446.48591947 50.21917725 441.7331543 C50.27940276 436.02639896 50.30229106 430.31938628 50.33144379 424.61240387 C50.37987403 415.94940224 50.47569554 407.28808486 50.5625 398.625 C36.7025 398.625 22.8425 398.625 8.5625 398.625 C8.64951172 407.30876953 8.64951172 407.30876953 8.73828125 416.16796875 C8.76383053 419.83661658 8.7879001 423.50515464 8.80664062 427.17382812 C8.83652481 432.996407 8.87186848 438.81859256 8.93969727 444.64086914 C8.99404363 449.33524699 9.02392613 454.02920306 9.03688622 458.72387123 C9.04612141 460.51447502 9.06415593 462.30505585 9.09115028 464.09547997 C9.1274767 466.60476848 9.13244403 469.11231681 9.13012695 471.62182617 C9.14810333 472.36125961 9.16607971 473.10069305 9.18460083 473.86253357 C9.14568846 477.75992849 8.67723639 479.47810142 6.24967957 482.58613586 C3.5625 484.625 3.5625 484.625 0 485.25 C-3.4375 484.625 -3.4375 484.625 -5.6239624 482.58613586 C-7.90061277 478.8688316 -7.97377281 475.84682654 -7.89160156 471.62182617 C-7.89218567 470.83105682 -7.89276978 470.04028748 -7.89337158 469.22555542 C-7.89059404 466.62257353 -7.85951885 464.02074955 -7.828125 461.41796875 C-7.82066141 459.60908127 -7.81496903 457.80018569 -7.81097412 455.99128723 C-7.79572706 451.23834778 -7.75645331 446.48589997 -7.7121582 441.7331543 C-7.67118544 436.88011322 -7.65295883 432.02699244 -7.6328125 427.17382812 C-7.58995811 417.65733649 -7.52171804 408.14120918 -7.4375 398.625 C-9.14993896 398.64457764 -9.14993896 398.64457764 -10.89697266 398.66455078 C-12.42350052 398.67511093 -13.95003064 398.68534757 -15.4765625 398.6953125 C-16.22558838 398.70473877 -16.97461426 398.71416504 -17.74633789 398.72387695 C-32.07664728 398.7937809 -44.98593859 394.56846722 -55.59375 384.65625 C-65.41068237 373.84098552 -68.72342509 362.49055345 -68.53515625 348.20703125 C-68.52810669 347.18790649 -68.52105713 346.16878174 -68.51379395 345.11877441 C-68.49549571 342.62069865 -68.46987024 340.12292641 -68.4375 337.625 C-69.92088364 337.63499275 -69.92088364 337.63499275 -71.43423462 337.64518738 C-80.76236573 337.7060516 -90.09045646 337.75099815 -99.41874123 337.78043652 C-104.21430372 337.79607997 -109.00970567 337.81729416 -113.80517578 337.85131836 C-118.43469187 337.88395885 -123.0640537 337.90186295 -127.69367599 337.90963173 C-129.45829063 337.91516681 -131.22289701 337.92597554 -132.98744583 337.94219017 C-135.46268078 337.96402695 -137.93728159 337.96696434 -140.41259766 337.96557617 C-141.5023288 337.98175491 -141.5023288 337.98175491 -142.61407471 337.9982605 C-147.28056531 337.97001698 -150.48027521 337.10309313 -154.4375 334.625 C-155.98336876 331.53326248 -155.73109521 329.03070448 -155.4375 325.625 C-153.92254639 323.42681885 -153.92254639 323.42681885 -151.4375 321.625 C-148.61267099 321.25088473 -146.18425159 321.1176583 -143.36425781 321.17089844 C-142.55412735 321.17031433 -141.74399689 321.16973022 -140.90931702 321.16912842 C-138.23598129 321.17191148 -135.56376553 321.2030131 -132.890625 321.234375 C-131.03546762 321.24183662 -129.18030236 321.24752993 -127.32513428 321.25152588 C-122.44559923 321.26678845 -117.56654147 321.30607564 -112.68719482 321.3503418 C-106.83105838 321.39848063 -100.97476223 321.41682555 -95.1184845 321.44015503 C-86.22449118 321.47892629 -77.33154484 321.55557554 -68.4375 321.625 C-68.4375 307.765 -68.4375 293.905 -68.4375 279.625 C-74.22667969 279.65980469 -80.01585938 279.69460938 -85.98046875 279.73046875 C-89.64909864 279.74579824 -93.317689 279.76024017 -96.98632812 279.77148438 C-102.80875861 279.78941443 -108.63104749 279.81062077 -114.45336914 279.85131836 C-119.14771895 279.88392598 -123.8419169 279.90185603 -128.53637123 279.90963173 C-130.32693179 279.91517271 -132.11748409 279.92599291 -133.90797997 279.94219017 C-136.41694443 279.96398321 -138.92528221 279.96696616 -141.43432617 279.96557617 C-142.54347633 279.98175491 -142.54347633 279.98175491 -143.67503357 279.9982605 C-148.10128679 279.97174494 -150.92071545 279.35976803 -154.4375 276.625 C-155.88180855 273.73638291 -155.81438506 271.82852299 -155.4375 268.625 C-152.70869986 265.02211865 -151.23561698 263.7541992 -146.72319031 263.02372742 C-145.26299793 263.0093246 -143.80237207 263.02232598 -142.3425293 263.05737305 C-141.54200638 263.05664291 -140.74148346 263.05591278 -139.91670227 263.05516052 C-137.28100903 263.05863315 -134.64710171 263.09747666 -132.01171875 263.13671875 C-130.18041448 263.14604808 -128.34909771 263.15316363 -126.51777649 263.15815735 C-121.70552923 263.17721774 -116.89404052 263.22631016 -112.08209229 263.28167725 C-106.30441717 263.34189987 -100.52648794 263.36479055 -94.74858856 263.39394379 C-85.97769868 263.44237591 -77.20847206 263.53819689 -68.4375 263.625 C-68.4375 249.765 -68.4375 235.905 -68.4375 221.625 C-74.29886719 221.68300781 -80.16023438 221.74101562 -86.19921875 221.80078125 C-89.91343915 221.82633029 -93.62755114 221.85039986 -97.34179688 221.86914062 C-103.23680126 221.89902569 -109.1314172 221.93437179 -115.02612305 222.00219727 C-119.77885505 222.05654052 -124.5311705 222.0864255 -129.28418922 222.09938622 C-131.09712087 222.10862195 -132.91002982 222.12665752 -134.72278404 222.15365028 C-137.26319946 222.18997241 -139.80189582 222.19494419 -142.3425293 222.19262695 C-143.46570557 222.21959152 -143.46570557 222.21959152 -144.61157227 222.24710083 C-148.55483208 222.20820592 -150.27360141 221.75470897 -153.40437317 219.27702332 C-155.4375 216.625 -155.4375 216.625 -156.0625 213.625 C-155.20861039 209.52632988 -153.70443929 208.21044833 -150.4375 205.625 C-147.53544867 205.15521583 -145.23328211 204.98797352 -142.3425293 205.05737305 C-141.54200638 205.05664291 -140.74148346 205.05591278 -139.91670227 205.05516052 C-137.28100903 205.05863315 -134.64710171 205.09747666 -132.01171875 205.13671875 C-130.18041448 205.14604808 -128.34909771 205.15316363 -126.51777649 205.15815735 C-121.70552923 205.17721774 -116.89404052 205.22631016 -112.08209229 205.28167725 C-106.30441717 205.34189987 -100.52648794 205.36479055 -94.74858856 205.39394379 C-85.97769868 205.44237591 -77.20847206 205.53819689 -68.4375 205.625 C-68.4375 191.765 -68.4375 177.905 -68.4375 163.625 C-74.38265625 163.67140625 -80.3278125 163.7178125 -86.453125 163.765625 C-90.21746536 163.78606099 -93.98173741 163.80531654 -97.74609375 163.8203125 C-103.72231229 163.84423249 -109.69828591 163.87254238 -115.67431641 163.92675781 C-120.49186641 163.97019028 -125.3091538 163.99413178 -130.12688446 164.00450897 C-131.96573776 164.01190502 -133.80457654 164.02634769 -135.64331818 164.04792023 C-138.2172817 164.07692002 -140.79015745 164.0809575 -143.36425781 164.07910156 C-144.12598801 164.09348267 -144.8877182 164.10786377 -145.67253113 164.12268066 C-149.1307272 164.09566525 -151.08497913 163.88292491 -153.91082764 161.81536865 C-156.14770169 158.60604953 -155.98258019 156.44056135 -155.4375 152.625 C-153.21886971 149.71782927 -151.91805071 148.78518357 -148.4375 147.625 C-145.86673471 147.53401775 -143.32368965 147.49893962 -140.75317383 147.51147461 C-139.9724501 147.51132858 -139.19172638 147.51118256 -138.38734436 147.5110321 C-135.80637841 147.51172886 -133.2254846 147.51951018 -130.64453125 147.52734375 C-128.85519958 147.52920877 -127.0658674 147.53063228 -125.27653503 147.53163147 C-120.56652416 147.53545001 -115.85654411 147.54527467 -111.14654541 147.55633545 C-106.34053972 147.56656379 -101.53452906 147.57113214 -96.72851562 147.57617188 C-87.29816354 147.58689751 -77.86783433 147.60396601 -68.4375 147.625 C-68.44568253 146.9935759 -68.45386505 146.36215179 -68.46229553 145.71159363 C-68.49498293 142.82207719 -68.51516789 139.93259982 -68.53515625 137.04296875 C-68.54824829 136.04970581 -68.56134033 135.05644287 -68.5748291 134.03308105 C-68.64336541 120.81653976 -64.23258919 110.29773281 -55.44140625 100.37109375 C-44.27541453 89.57388707 -30.57456393 86.48296174 -15.578125 86.5859375 C-14.79324707 86.58875732 -14.00836914 86.59157715 -13.19970703 86.59448242 C-11.27895832 86.60179121 -9.35822512 86.6129988 -7.4375 86.625 C-7.44638245 85.62132889 -7.45526489 84.61765778 -7.4644165 83.58357239 C-7.54552008 74.12271273 -7.6054739 64.66192365 -7.64474869 55.20079517 C-7.66561917 50.33675963 -7.693927 45.47300483 -7.73925781 40.60913086 C-7.78273476 35.91476878 -7.80664117 31.22067666 -7.81700897 26.52612877 C-7.82439702 24.73554929 -7.83882426 22.94498451 -7.86042023 21.15452003 C-7.88947925 18.64541377 -7.89345503 16.13742143 -7.89160156 13.62817383 C-7.90598267 12.88874039 -7.92036377 12.14930695 -7.93518066 11.38746643 C-7.90653419 7.80099106 -7.5129024 5.7481167 -5.6239624 2.66386414 C-3.4375 0.625 -3.4375 0.625 0 0 Z M-46.4375 114.625 C-52.01812288 123.57749397 -53.59047765 131.28290886 -53.57121277 141.63801575 C-53.57347833 142.53517372 -53.57574388 143.4323317 -53.57807809 144.35667628 C-53.58439882 147.35734487 -53.58358996 150.35796807 -53.58276367 153.35864258 C-53.58575636 155.51238564 -53.58915915 157.66612817 -53.59294128 159.81987 C-53.60177429 165.66704282 -53.60411911 171.51420101 -53.60475707 177.36137986 C-53.60546797 181.01554088 -53.60760306 184.66969817 -53.61025429 188.32385826 C-53.6195054 201.07503877 -53.62358947 213.82620882 -53.62280273 226.57739258 C-53.62220201 238.4584244 -53.63275349 250.33941082 -53.6485464 262.22043115 C-53.66162727 272.42528141 -53.6669864 282.63011684 -53.66634732 292.83497542 C-53.6660925 298.92790586 -53.66893531 305.02079595 -53.67952538 311.11371803 C-53.68921551 316.84532857 -53.6892792 322.57686025 -53.68200874 328.30847359 C-53.68096404 330.40908676 -53.68331897 332.50970488 -53.6893692 334.6103096 C-53.69710831 337.48397642 -53.69243157 340.35737217 -53.68473816 343.23103333 C-53.68988172 344.05673366 -53.69502529 344.88243399 -53.70032471 345.73315555 C-53.63761307 356.37737569 -51.09055125 365.44238892 -43.76953125 373.44921875 C-37.80678325 378.86617746 -30.5797528 382.73790719 -22.41527462 382.75922108 C-21.61987992 382.76367892 -20.82448522 382.76813676 -20.00498766 382.77272969 C-19.13700613 382.77254533 -18.2690246 382.77236097 -17.3747406 382.77217102 C-16.44803419 382.77584771 -15.52132777 382.7795244 -14.56653935 382.7833125 C-11.45377781 382.79434669 -8.34104965 382.79819276 -5.22827148 382.80200195 C-2.99925124 382.80826687 -0.77023204 382.81491369 1.45878601 382.82191467 C8.78631869 382.84295636 16.11385158 382.85331803 23.44140625 382.86328125 C25.96466521 382.86732894 28.48792405 382.87144587 31.01118279 382.87563133 C41.50865757 382.89250096 52.00613123 382.90713493 62.50361729 382.91438007 C65.22645125 382.91628984 67.94928521 382.91821019 70.67211914 382.92016602 C71.34883189 382.92064976 72.02554463 382.9211335 72.72276383 382.9216319 C83.67589305 382.92992556 94.62891283 382.95525167 105.5819943 382.98774669 C116.83822702 383.02086759 128.0944063 383.03850103 139.35069412 383.04202431 C145.66622248 383.04437329 151.98157787 383.05331402 158.29706001 383.07848549 C164.24211084 383.10179735 170.18687519 383.1059867 176.13195992 383.09572411 C178.3091426 383.09522938 180.48633953 383.10153111 182.66347885 383.11528015 C202.75841322 383.23966656 202.75841322 383.23966656 219.55078125 373.0390625 C226.98210664 364.12147203 228.71707165 354.82388633 228.69621277 343.61198425 C228.69847833 342.71482628 228.70074388 341.8176683 228.70307809 340.89332372 C228.70939882 337.89265513 228.70858996 334.89203193 228.70776367 331.89135742 C228.71075636 329.73761436 228.71415915 327.58387183 228.71794128 325.43013 C228.72677429 319.58295718 228.72911911 313.73579899 228.72975707 307.88862014 C228.73046797 304.23445912 228.73260306 300.58030183 228.73525429 296.92614174 C228.7445054 284.17496123 228.74858947 271.42379118 228.74780273 258.67260742 C228.74720201 246.7915756 228.75775349 234.91058918 228.7735464 223.02956885 C228.78662727 212.82471859 228.7919864 202.61988316 228.79134732 192.41502458 C228.7910925 186.32209414 228.79393531 180.22920405 228.80452538 174.13628197 C228.81421551 168.40467143 228.8142792 162.67313975 228.80700874 156.94152641 C228.80596404 154.84091324 228.80831897 152.74029512 228.8143692 150.6396904 C228.82210831 147.76602358 228.81743157 144.89262783 228.80973816 142.01896667 C228.8174535 140.78041617 228.8174535 140.78041617 228.82532471 139.51684445 C228.76114151 128.62285206 226.02319248 119.8862754 218.77734375 111.578125 C207.722915 100.95497786 193.84933971 102.04900626 179.55859375 102.10742188 C177.32853744 102.10199569 175.09848471 102.09487025 172.86843872 102.08618164 C166.83539603 102.06800462 160.80262811 102.07499272 154.76958084 102.08769798 C148.44330376 102.09785475 142.11704953 102.08842488 135.79077148 102.08215332 C124.48917723 102.0744197 113.18772193 102.0868175 101.88615549 102.10719067 C91.65744046 102.12505955 81.42890707 102.12195478 71.20019531 102.10351562 C59.29664001 102.08206703 47.39319486 102.07416406 35.48961353 102.08596468 C29.19769241 102.09218727 22.90589616 102.09306915 16.61398315 102.07981873 C10.6975248 102.06822838 4.78140804 102.07634444 -1.13501358 102.09939575 C-3.30089883 102.1046658 -5.46681304 102.10319843 -7.63268661 102.09434509 C-22.67533111 102.0385447 -36.06607879 102.17929454 -46.4375 114.625 Z " fill="#333333" transform="translate(168.4375,13.375)"/>
<path d="M0 0 C2.3125 1.0625 2.3125 1.0625 4 3 C5.37623069 8.61645303 4.55520839 12.44800094 2.36303711 17.64086914 C2.07046021 18.37042816 1.7778833 19.09998718 1.47644043 19.85165405 C0.50894655 22.25278892 -0.48154363 24.64368494 -1.47265625 27.03515625 C-2.15613524 28.71740536 -2.83819522 30.40023161 -3.51890564 32.08360291 C-5.31537215 36.51475188 -7.13166029 40.93751257 -8.95202637 45.35888672 C-10.78200155 49.81423356 -12.59199891 54.27767555 -14.40429688 58.74023438 C-17.95889084 67.47903018 -21.52278556 76.21363378 -25.14442825 84.9248848 C-25.99410787 86.98570914 -26.82507408 89.05334017 -27.65353394 91.12277222 C-28.17286515 92.39376818 -28.69254985 93.66461979 -29.21264648 94.93530273 C-29.65632065 96.0377684 -30.09999481 97.14023407 -30.55711365 98.27610779 C-32.07614696 101.14375083 -33.20043016 102.40866936 -36 104 C-39.29029921 104.4112874 -41.2941394 104.32431433 -44.3125 102.9375 C-46.79201109 100.09065393 -46.74759072 97.72673991 -47 94 C-46.16252136 90.77613831 -46.16252136 90.77613831 -44.79370117 87.43579102 C-44.54656372 86.81983063 -44.29942627 86.20387024 -44.0447998 85.56924438 C-43.2263683 83.54076417 -42.38497238 81.52270258 -41.54296875 79.50390625 C-40.95874065 78.06982246 -40.37594824 76.63515305 -39.79450989 75.19993591 C-38.25602088 71.41374496 -36.69779652 67.6359854 -35.13537598 63.85961914 C-33.58651425 60.10604798 -32.05681319 56.34469576 -30.52539062 52.58398438 C-27.86744998 46.06370581 -25.18579506 39.55354679 -22.49180412 33.04808998 C-20.64163175 28.57360612 -18.82377139 24.08744886 -17.02197266 19.59326172 C-16.56897293 18.4746727 -16.11597321 17.35608368 -15.64924622 16.20359802 C-14.8186294 14.15202563 -13.99661734 12.09693878 -13.18510437 10.03773499 C-12.82020401 9.14348312 -12.45530365 8.24923126 -12.0793457 7.32788086 C-11.77164749 6.5581041 -11.46394928 5.78832733 -11.14692688 4.995224 C-8.46632762 0.33198342 -5.18302308 -0.64787788 0 0 Z " fill="#333333" transform="translate(277,204)"/>
<path d="M0 0 C7.43840362 5.08996302 13.73491193 12.58254454 20.08422852 18.95385742 C21.95409753 20.82914563 23.82932899 22.69895465 25.70507812 24.56835938 C26.89615461 25.76009565 28.0869214 26.95214155 29.27734375 28.14453125 C29.83767807 28.70284134 30.39801239 29.26115143 30.97532654 29.83638 C35.73887737 34.62910618 35.73887737 34.62910618 36.5 38.625 C35.17829525 47.54650708 23.29530813 55.85663756 17.04614258 62.08422852 C15.17085437 63.95409753 13.30104535 65.82932899 11.43164062 67.70507812 C10.23990435 68.89615461 9.04785845 70.0869214 7.85546875 71.27734375 C7.29715866 71.83767807 6.73884857 72.39801239 6.16362 72.97532654 C1.22201438 77.88685052 1.22201438 77.88685052 -3.375 78.3125 C-7 78 -7 78 -9.4375 76.4375 C-11.70159958 72.90550465 -11.7587407 71.13858566 -11 67 C-6.2907782 60.3467054 0.16619803 54.71424728 5.9375 49 C6.81212891 48.12988281 7.68675781 47.25976562 8.58789062 46.36328125 C10.72297449 44.23986451 12.86037205 42.11883622 15 40 C13.42204085 36.10956367 10.76445619 33.52304632 7.80859375 30.6484375 C7.30328629 30.1483316 6.79797882 29.64822571 6.27735901 29.13296509 C4.66876916 27.54213057 3.05363181 25.95816916 1.4375 24.375 C-0.18130238 22.78382224 -1.79861821 21.19120299 -3.41307068 19.59561157 C-4.41640427 18.60452902 -5.42239908 17.61613192 -6.43128967 16.63070679 C-9.58982223 13.51761595 -10.89614263 12.12165959 -11.3125 7.625 C-11 4 -11 4 -9.4375 1.5625 C-5.90550465 -0.70159958 -4.13858566 -0.7587407 0 0 Z " fill="#333333" transform="translate(306,217)"/>
<path d="M0 0 C2.4375 1.5625 2.4375 1.5625 4 4 C4.6875 7.25 4.6875 7.25 4 11 C-0.7092218 17.6532946 -7.16619803 23.28575272 -12.9375 29 C-13.81212891 29.87011719 -14.68675781 30.74023438 -15.58789062 31.63671875 C-17.72297449 33.76013549 -19.86037205 35.88116378 -22 38 C-20.42204085 41.89043633 -17.76445619 44.47695368 -14.80859375 47.3515625 C-14.30328629 47.8516684 -13.79797882 48.35177429 -13.27735901 48.86703491 C-11.66876916 50.45786943 -10.05363181 52.04183084 -8.4375 53.625 C-6.81869762 55.21617776 -5.20138179 56.80879701 -3.58692932 58.40438843 C-2.58359573 59.39547098 -1.57760092 60.38386808 -0.56871033 61.36929321 C2.58982223 64.48238405 3.89614263 65.87834041 4.3125 70.375 C4 74 4 74 2.4375 76.4375 C-1.09449535 78.70159958 -2.86141434 78.7587407 -7 78 C-14.43840362 72.91003698 -20.73491193 65.41745546 -27.08422852 59.04614258 C-28.95409753 57.17085437 -30.82932899 55.30104535 -32.70507812 53.43164062 C-33.89615461 52.23990435 -35.0869214 51.04785845 -36.27734375 49.85546875 C-36.83767807 49.29715866 -37.39801239 48.73884857 -37.97532654 48.16362 C-42.73887737 43.37089382 -42.73887737 43.37089382 -43.5 39.375 C-42.17829525 30.45349292 -30.29530813 22.14336244 -24.04614258 15.91577148 C-22.17085437 14.04590247 -20.30104535 12.17067101 -18.43164062 10.29492188 C-17.23990435 9.10384539 -16.04785845 7.9130786 -14.85546875 6.72265625 C-14.29715866 6.16232193 -13.73884857 5.60198761 -13.16362 5.02467346 C-8.62819571 0.51685822 -6.50721492 -0.5609668 0 0 Z " fill="#333333" transform="translate(213,217)"/>
</svg>
