<?xml version="1.0" standalone="no"?>
<!DOCTYPE svg PUBLIC "-//W3C//DTD SVG 20010904//EN"
 "http://www.w3.org/TR/2001/REC-SVG-20010904/DTD/svg10.dtd">
<svg version="1.0" xmlns="http://www.w3.org/2000/svg"
 width="90.000000pt" height="90.000000pt" viewBox="0 0 90.000000 90.000000"
 preserveAspectRatio="xMidYMid meet">

<g transform="translate(0.000000,90.000000) scale(0.100000,-0.100000)"
fill="#333333" stroke="none">
<path d="M140 760 c-18 -18 -20 -31 -18 -88 l3 -67 325 0 325 0 3 67 c2 57 0
70 -18 88 -19 19 -31 20 -310 20 -279 0 -291 -1 -310 -20z"/>
<path d="M124 527 c-3 -8 -4 -47 -2 -88 l3 -74 222 -3 221 -2 7 28 c3 16 20
42 36 58 25 24 39 29 79 29 34 0 54 -6 70 -20 l21 -19 -3 49 -3 50 -323 3
c-264 2 -323 0 -328 -11z"/>
<path d="M650 400 c-15 -15 -20 -33 -20 -75 l0 -55 -55 0 c-60 0 -95 -22 -95
-60 0 -38 35 -60 95 -60 l55 0 0 -55 c0 -60 22 -95 60 -95 38 0 60 35 60 95
l0 55 55 0 c60 0 95 22 95 60 0 38 -35 60 -95 60 l-55 0 0 55 c0 60 -22 95
-60 95 -11 0 -29 -9 -40 -20z"/>
<path d="M127 293 c-4 -3 -7 -35 -7 -70 0 -100 6 -103 192 -103 l151 0 -19 21
c-13 15 -19 36 -19 69 0 33 6 54 19 69 l19 21 -165 0 c-90 0 -168 -3 -171 -7z"/>
</g>
</svg>
